#!OML:ASF F:\VICON\USERDATA\INSTALL\Justin_Nancy\Justin_Nancy.ASF
:FULLY-SPECIFIED
:DEGREES
508
root -0.121642 17.0719 32.3107 -0.400281 1.83541 3.46301
lowerback 5.03973 -1.86733 -4.85329
upperback -1.09911 -2.72754 2.15468
thorax -3.63731 -1.22795 5.18354
lowerneck -15.2873 -3.27994 -9.56869
upperneck 23.2313 -3.33005 4.7757
head 10.1875 -1.83695 2.85366
rclavicle -3.62627e-015 7.15625e-015
rhumerus -50.958 -35.391 -55.541
rradius 19.7445
rwrist 20.5927
rhand -16.9465 12.522
rfingers 7.12502
rthumb 9.28694 -17.2534
lclavicle -3.62627e-015 7.15625e-015
lhumerus -28.1981 7.49902 84.8946
lradius 35.419
lwrist -5.94351
lhand -14.6857 24.5518
lfingers 7.12502
lthumb 11.4679 54.2181
rfemur -26.3131 0.899818 19.1119
rtibia 28.3993
rfoot -0.0623365 -3.01029
rtoes 6.34396
lfemur 11.7104 -6.41894 -27.2522
ltibia 32.7539
lfoot 0.0617561 -7.38363
ltoes -20.6954
509
root -0.150792 17.0922 32.5137 -0.496369 1.70382 3.33456
lowerback 4.95475 -1.81793 -4.93239
upperback -1.15464 -2.66007 2.25493
thorax -3.64771 -1.19001 5.32679
lowerneck -15.4147 -3.10737 -9.62021
upperneck 23.6566 -3.07779 4.80846
head 10.3463 -1.72712 2.91454
rclavicle -3.7533e-014 -4.77083e-015
rhumerus -51.0448 -35.1022 -55.6439
rradius 20.1525
rwrist 19.8212
rhand -16.8906 12.362
rfingers 7.12502
rthumb 9.34087 -17.411
lclavicle -3.7533e-014 -4.77083e-015
lhumerus -28.5745 7.72435 84.8974
lradius 35.2445
lwrist -5.98141
lhand -14.2129 25.3616
lfingers 7.12502
lthumb 11.9239 55.002
rfemur -25.6723 1.0935 19.4567
rtibia 28.8333
rfoot -0.830165 -3.31879
rtoes 6.09012
lfemur 10.7672 -6.11528 -26.8084
ltibia 34.727
lfoot 3.25608 -7.8929
ltoes -18.9566
510
root -0.173917 17.1127 32.7124 -0.635451 1.74297 3.16118
lowerback 4.94841 -1.8109 -4.8654
upperback -1.16547 -2.64372 2.32458
thorax -3.65711 -1.18208 5.36089
lowerneck -15.381 -3.00958 -9.81626
upperneck 23.6833 -2.9707 5.11368
head 10.3475 -1.66078 3.0733
rclavicle 9.11303e-015 -1.03368e-014
rhumerus -51.0426 -35.0307 -55.7324
rradius 20.5236
rwrist 19.0109
rhand -16.6917 12.63
rfingers 7.12502
rthumb 9.53286 -17.1343
lclavicle 9.11303e-015 -1.03368e-014
lhumerus -29.0661 7.99863 84.8138
lradius 35.3959
lwrist -6.42731
lhand -12.9755 26.9638
lfingers 7.12502
lthumb 13.1168 56.5313
rfemur -24.8274 1.03496 19.8297
rtibia 29.015
rfoot -1.4455 -3.38803
rtoes 5.33695
lfemur 9.74317 -5.9587 -26.3469
ltibia 36.7551
lfoot 6.59969 -8.67488
ltoes -17.7725
511
root -0.200614 17.1392 32.9072 -0.832301 1.76303 2.62834
lowerback 5.13358 -1.80093 -4.48043
upperback -1.21053 -2.60629 2.50724
thorax -3.82109 -1.16373 5.34178
lowerneck -15.2371 -3.03722 -9.88783
upperneck 23.5353 -3.0172 5.17013
head 10.2723 -1.68137 3.09735
rclavicle -1.06598e-014 -1.35174e-014
rhumerus -51.0206 -35.0361 -55.7674
rradius 20.8731
rwrist 18.3537
rhand -16.564 12.8643
rfingers 7.12502
rthumb 9.65607 -16.8944
lclavicle -1.06598e-014 -1.35174e-014
lhumerus -29.6488 8.22749 84.7796
lradius 35.5295
lwrist -6.33413
lhand -13.1616 27.2956
lfingers 7.12502
lthumb 12.9374 56.8745
rfemur -23.7868 1.21331 20.5722
rtibia 28.8828
rfoot -2.07406 -3.47135
rtoes 4.69205
lfemur 8.65071 -5.99776 -25.537
ltibia 38.9218
lfoot 9.72825 -9.55553
ltoes -16.5396
512
root -0.229366 17.1741 33.0984 -0.977273 1.76329 2.08757
lowerback 5.22392 -1.78094 -4.10575
upperback -1.12318 -2.55022 2.69095
thorax -3.7951 -1.14512 5.31943
lowerneck -15.9116 -3.08198 -9.84759
upperneck 24.0326 -3.02133 5.13266
head 10.5829 -1.684 3.08245
rclavicle 7.09413e-015 -1.51076e-014
rhumerus -50.6164 -34.9859 -56.175
rradius 21.254
rwrist 17.4269
rhand -16.5124 12.8629
rfingers 7.12502
rthumb 9.70578 -16.8935
lclavicle 7.09413e-015 -1.51076e-014
lhumerus -29.7601 8.4071 84.8432
lradius 35.3135
lwrist -5.91484
lhand -14.3365 25.7434
lfingers 7.12502
lthumb 11.8046 55.3907
rfemur -22.657 1.64538 21.2995
rtibia 28.4005
rfoot -2.38166 -3.79945
rtoes 5.29609
lfemur 7.34585 -5.93371 -24.6728
ltibia 41.2493
lfoot 12.4902 -10.6555
ltoes -16.2631
513
root -0.260801 17.2121 33.2855 -1.1233 1.76267 1.52696
lowerback 5.41451 -1.74194 -3.70397
upperback -1.10283 -2.46997 2.8523
thorax -3.90023 -1.10976 5.26287
lowerneck -16.3785 -3.12704 -9.70965
upperneck 24.2912 -3.05262 5.03043
head 10.7674 -1.69633 3.02013
rclavicle -1.56543e-015 -2.22639e-014
rhumerus -50.0865 -34.3988 -57.0884
rradius 21.7351
rwrist 15.7944
rhand -16.6785 12.4711
rfingers 7.12502
rthumb 9.54559 -17.2927
lclavicle -1.56543e-015 -2.22639e-014
lhumerus -29.9375 8.52127 84.8146
lradius 34.9613
lwrist -5.93939
lhand -14.2327 24.8845
lfingers 7.12502
lthumb 11.9047 54.526
rfemur -21.38 2.26162 22.0739
rtibia 27.6782
rfoot -2.48625 -4.51449
rtoes 5.69326
lfemur 5.86532 -5.92573 -23.7725
ltibia 43.6464
lfoot 15.4122 -11.4971
ltoes -12.3106
514
root -0.291342 17.2509 33.4652 -1.2194 1.87413 0.621761
lowerback 5.589 -1.75369 -2.90211
upperback -1.12755 -2.42419 3.06044
thorax -4.05251 -1.09871 5.03122
lowerneck -16.5474 -3.1263 -9.51009
upperneck 24.3796 -3.08747 5.01031
head 10.8311 -1.6954 2.97505
rclavicle -4.21423e-014 3.02153e-014
rhumerus -49.8307 -34.4183 -57.4792
rradius 22.096
rwrist 15.015
rhand -16.537 12.1998
rfingers 7.12502
rthumb 9.68207 -17.5577
lclavicle -4.21423e-014 3.02153e-014
lhumerus -30.1926 8.32586 84.7355
lradius 34.8144
lwrist -6.30631
lhand -12.7758 26.1803
lfingers 7.12502
lthumb 13.3093 55.7353
rfemur -20.184 2.76108 23.2451
rtibia 26.905
rfoot -2.52976 -5.02142
rtoes 4.98333
lfemur 4.22583 -5.95825 -22.4545
ltibia 46.0157
lfoot 18.5961 -12.1663
ltoes -3.38056
515
root -0.307443 17.2925 33.6481 -1.24807 2.14518 0.0599434
lowerback 5.4496 -1.82558 -2.31881
upperback -0.996404 -2.47395 3.17133
thorax -3.85068 -1.14301 4.80982
lowerneck -16.8499 -3.28066 -9.53601
upperneck 24.3304 -3.3057 5.15471
head 10.893 -1.77516 2.99838
rclavicle -3.54893e-014 1.03368e-014
rhumerus -49.1941 -34.505 -58.0355
rradius 22.3111
rwrist 14.3344
rhand -16.4939 12.1568
rfingers 7.12502
rthumb 9.72366 -17.5987
lclavicle -3.54893e-014 1.03368e-014
lhumerus -30.1792 8.28909 84.7483
lradius 34.5778
lwrist -6.53336
lhand -12.0803 26.4793
lfingers 7.12502
lthumb 13.9797 55.9892
rfemur -19.2085 2.7186 23.9709
rtibia 26.3064
rfoot -2.70132 -5.22771
rtoes 4.89637
lfemur 2.66892 -6.13663 -21.6228
ltibia 48.2378
lfoot 21.1283 -12.8628
ltoes 4.48816
516
root -0.31797 17.3213 33.8379 -1.36989 2.33595 -0.252807
lowerback 5.39247 -1.86523 -1.93723
upperback -0.916119 -2.49901 3.22664
thorax -3.74582 -1.16685 4.64813
lowerneck -17.1576 -3.59757 -9.8343
upperneck 24.4262 -3.70889 5.40591
head 11.0359 -1.95352 3.0813
rclavicle 1.14115e-014 1.35174e-014
rhumerus -48.5977 -34.4241 -58.4446
rradius 22.3648
rwrist 13.4094
rhand -16.3925 13.2939
rfingers 7.12502
rthumb 9.82148 -16.4571
lclavicle 1.14115e-014 1.35174e-014
lhumerus -30.3286 8.13386 84.861
lradius 34.2751
lwrist -6.29924
lhand -12.976 25.6582
lfingers 7.12502
lthumb 13.1163 55.2257
rfemur -18.1749 2.49872 24.4055
rtibia 25.9148
rfoot -3.29657 -5.42222
rtoes 4.64158
lfemur 1.45458 -6.10738 -21.1574
ltibia 50.2939
lfoot 22.2575 -13.4766
ltoes 4.90169
517
root -0.330235 17.3339 34.0204 -1.49471 2.40768 -0.406542
lowerback 5.5923 -1.81517 -1.76704
upperback -1.0018 -2.41752 3.27508
thorax -3.9601 -1.12361 4.608
lowerneck -17.1981 -3.77206 -10.0288
upperneck 24.4247 -3.902 5.43056
head 11.067 -2.05589 3.09362
rclavicle -3.2551e-014 1.82882e-014
rhumerus -48.1934 -34.1196 -58.7647
rradius 22.4348
rwrist 12.6899
rhand -16.3875 13.8569
rfingers 7.12502
rthumb 9.82633 -15.8939
lclavicle -3.2551e-014 1.82882e-014
lhumerus -30.6088 7.82569 85.0411
lradius 33.6909
lwrist -6.23399
lhand -14.8704 23.6304
lfingers 7.12502
lthumb 11.2897 53.3066
rfemur -17.1951 2.34232 24.6907
rtibia 25.6511
rfoot -3.88233 -5.55204
rtoes 5.01136
lfemur 0.334574 -5.89647 -20.8897
ltibia 52.2743
lfoot 21.6108 -14.4089
ltoes 1.00415
518
root -0.344058 17.346 34.1977 -1.58752 2.40532 -0.452343
lowerback 5.63763 -1.71888 -1.71187
upperback -0.977755 -2.28682 3.23463
thorax -3.97626 -1.06015 4.52475
lowerneck -17.1433 -3.69888 -9.65625
upperneck 24.1078 -3.8433 5.21472
head 10.9188 -2.01645 2.95533
rclavicle -1.3244e-014 -7.15625e-015
rhumerus -47.4222 -33.4551 -59.9297
rradius 22.8399
rwrist 12.1924
rhand -17.0865 12.528
rfingers 7.12502
rthumb 9.15183 -17.2534
lclavicle -1.3244e-014 -7.15625e-015
lhumerus -30.6148 7.43037 85.1689
lradius 33.0488
lwrist -6.4038
lhand -15.7749 21.8087
lfingers 7.12502
lthumb 10.4173 51.5306
rfemur -16.3108 2.35044 24.8625
rtibia 25.4402
rfoot -4.22978 -5.62802
rtoes 5.19695
lfemur -0.907119 -5.60313 -20.7086
ltibia 54.2251
lfoot 19.8341 -14.9109
ltoes -3.06137
519
root -0.36113 17.3635 34.36 -1.66794 2.2952 -0.886669
lowerback 5.79038 -1.65149 -1.32339
upperback -0.977385 -2.16458 3.32673
thorax -4.08363 -1.00506 4.39735
lowerneck -17.0382 -3.50415 -9.14615
upperneck 23.7626 -3.64045 4.938
head 10.7351 -1.90685 2.79393
rclavicle -5.06901e-015 2.38542e-015
rhumerus -46.5404 -32.594 -61.1652
rradius 23.2614
rwrist 11.5968
rhand -17.374 11.5605
rfingers 7.12502
rthumb 8.87442 -18.2328
lclavicle -5.06901e-015 2.38542e-015
lhumerus -30.6646 7.13875 85.2105
lradius 32.5823
lwrist -6.61011
lhand -14.6012 21.7466
lfingers 7.12502
lthumb 11.5494 51.4084
rfemur -15.4417 2.68614 25.4845
rtibia 25.0974
rfoot -4.4851 -5.97014
rtoes 4.91167
lfemur -2.406 -5.27196 -20.0164
ltibia 56.2327
lfoot 17.7872 -14.18
ltoes -6.11375
